<svg width="35" height="35" viewBox="0 0 35 35" fill="none" xmlns="http://www.w3.org/2000/svg">
<path d="M31.5437 21.5104C31.5437 22.8083 31.1792 24.0333 30.5375 25.0833C29.3417 27.0958 27.1396 28.4375 24.6167 28.4375C22.0937 28.4375 19.8917 27.0812 18.6958 25.0833C18.0542 24.0479 17.6896 22.8083 17.6896 21.5104C17.6896 17.6896 20.7958 14.5833 24.6167 14.5833C28.4375 14.5833 31.5437 17.6896 31.5437 21.5104Z" stroke="white" stroke-width="2" stroke-miterlimit="10" stroke-linecap="round" stroke-linejoin="round"/>
<path d="M27.2125 21.4812H22.0354" stroke="white" stroke-width="2" stroke-miterlimit="10" stroke-linecap="round" stroke-linejoin="round"/>
<path d="M24.6167 18.9583V24.1354" stroke="white" stroke-width="2" stroke-miterlimit="10" stroke-linecap="round" stroke-linejoin="round"/>
<path d="M30.1729 5.86255V9.10001C30.1729 10.2813 29.4292 11.7542 28.7 12.4979L26.1333 14.7583C25.6521 14.6417 25.1417 14.5834 24.6167 14.5834C20.7958 14.5834 17.6896 17.6896 17.6896 21.5104C17.6896 22.8084 18.0542 24.0334 18.6958 25.0834C19.2354 25.9875 19.9792 26.7604 20.8833 27.3146V27.8104C20.8833 28.7 20.3 29.8812 19.5563 30.3187L17.5 31.6459C15.5896 32.8271 12.9354 31.5 12.9354 29.1375V21.3354C12.9354 20.3 12.3375 18.973 11.7542 18.2438L6.15417 12.3521C5.425 11.6083 4.82709 10.2813 4.82709 9.40629V6.00835C4.82709 4.24376 6.15417 2.91669 7.77292 2.91669H27.2271C28.8458 2.91669 30.1729 4.2438 30.1729 5.86255Z" stroke="white" stroke-width="2" stroke-miterlimit="10" stroke-linecap="round" stroke-linejoin="round"/>
</svg>
